<svg width="62" height="62" viewBox="0 0 62 62" fill="none" xmlns="http://www.w3.org/2000/svg">
<path fill-rule="evenodd" clip-rule="evenodd" d="M31 0C13.8792 0 0 13.8792 0 31C0 48.1208 13.8792 62 31 62C48.1208 62 62 48.1208 62 31C62 13.8792 48.1208 0 31 0ZM24.1842 14.5668C25.9477 14.4866 26.5113 14.4669 31.0015 14.4669H30.9963C35.4879 14.4669 36.0494 14.4866 37.8129 14.5668C39.5731 14.6474 40.7752 14.9261 41.8292 15.3349C42.9177 15.7569 43.8373 16.3218 44.757 17.2414C45.6767 18.1604 46.2416 19.0829 46.6653 20.1703C47.0717 21.2215 47.3507 22.423 47.4334 24.1831C47.5126 25.9467 47.5333 26.5102 47.5333 31.0004C47.5333 35.4907 47.5126 36.0528 47.4334 37.8164C47.3507 39.5758 47.0717 40.7776 46.6653 41.8292C46.2416 42.9163 45.6767 43.8387 44.757 44.7577C43.8384 45.6774 42.9173 46.2436 41.8302 46.6659C40.7783 47.0748 39.5755 47.3534 37.8154 47.434C36.0518 47.5143 35.49 47.5339 30.9994 47.5339C26.5095 47.5339 25.9464 47.5143 24.1828 47.434C22.423 47.3534 21.2212 47.0748 20.1693 46.6659C19.0826 46.2436 18.1601 45.6774 17.2415 44.7577C16.3221 43.8387 15.7572 42.9163 15.3346 41.8288C14.9261 40.7776 14.6474 39.5761 14.5665 37.816C14.4866 36.0524 14.4666 35.4907 14.4666 31.0004C14.4666 26.5102 14.4873 25.9463 14.5661 24.1828C14.6454 22.4233 14.9244 21.2215 15.3343 20.1699C15.7579 19.0829 16.3228 18.1604 17.2425 17.2414C18.1615 16.3221 19.0839 15.7572 20.1714 15.3349C21.2226 14.9261 22.424 14.6474 24.1842 14.5668Z" fill="white"/>
<path fill-rule="evenodd" clip-rule="evenodd" d="M29.5183 17.446C29.8063 17.4456 30.1162 17.4457 30.4505 17.4459L31.0015 17.446C35.416 17.446 35.9392 17.4619 37.6825 17.5411C39.2945 17.6148 40.1694 17.8842 40.7522 18.1105C41.5237 18.4101 42.0738 18.7684 42.6521 19.347C43.2308 19.9257 43.589 20.4768 43.8894 21.2484C44.1157 21.8305 44.3854 22.7054 44.4588 24.3174C44.538 26.0603 44.5552 26.5839 44.5552 30.9963C44.5552 35.4086 44.538 35.9322 44.4588 37.6751C44.3851 39.2871 44.1157 40.162 43.8894 40.7441C43.5897 41.5157 43.2308 42.0651 42.6521 42.6434C42.0735 43.2221 41.5241 43.5803 40.7522 43.88C40.1701 44.1073 39.2945 44.376 37.6825 44.4497C35.9395 44.5289 35.416 44.5462 31.0015 44.5462C26.5867 44.5462 26.0635 44.5289 24.3206 44.4497C22.7086 44.3753 21.8337 44.106 21.2506 43.8797C20.479 43.58 19.9279 43.2218 19.3492 42.6431C18.7705 42.0644 18.4123 41.5147 18.112 40.7428C17.8856 40.1607 17.6159 39.2858 17.5426 37.6737C17.4634 35.9308 17.4475 35.4073 17.4475 30.9921C17.4475 26.577 17.4634 26.0562 17.5426 24.3133C17.6163 22.7013 17.8856 21.8264 18.112 21.2436C18.4116 20.472 18.7705 19.9209 19.3492 19.3422C19.9279 18.7635 20.479 18.4053 21.2506 18.105C21.8334 17.8776 22.7086 17.609 24.3206 17.5349C25.8458 17.466 26.4369 17.4453 29.5183 17.4419V17.446ZM39.8271 20.1912C38.7317 20.1912 37.8431 21.0788 37.8431 22.1745C37.8431 23.2699 38.7317 24.1585 39.8271 24.1585C40.9224 24.1585 41.8111 23.2699 41.8111 22.1745C41.8111 21.0792 40.9224 20.1905 39.8271 20.1905V20.1912ZM22.5108 31.0002C22.5108 26.3112 26.3125 22.5096 31.0015 22.5096H31.0011C35.6901 22.5096 39.4907 26.3112 39.4907 31.0002C39.4907 35.6892 35.6904 39.4891 31.0015 39.4891C26.3125 39.4891 22.5108 35.6892 22.5108 31.0002Z" fill="white"/>
<path d="M31.0014 25.4888C34.0449 25.4888 36.5126 27.9561 36.5126 30.9999C36.5126 34.0435 34.0449 36.5111 31.0014 36.5111C27.9575 36.5111 25.4902 34.0435 25.4902 30.9999C25.4902 27.9561 27.9575 25.4888 31.0014 25.4888Z" fill="white"/>
</svg>
