<svg width="62" height="62" viewBox="0 0 62 62" fill="none" xmlns="http://www.w3.org/2000/svg">
<path fill-rule="evenodd" clip-rule="evenodd" d="M0 31C0 48.1208 13.8792 62 31 62C48.1208 62 62 48.1208 62 31C62 13.8792 48.1208 0 31 0C13.8792 0 0 13.8792 0 31ZM50.4551 29.8134C50.4511 39.9746 42.185 48.2426 32.0217 48.2467H32.0141C28.9289 48.2457 25.8975 47.4716 23.2051 46.003L13.4332 48.5664L16.0483 39.0143C14.4352 36.2188 13.5864 33.0477 13.5878 29.7988C13.5918 19.6353 21.8611 11.3664 32.0215 11.3664C36.9527 11.3685 41.581 13.2882 45.0612 16.7726C48.5415 20.2567 50.4571 24.888 50.4551 29.8134Z" fill="white"/>
<path fill-rule="evenodd" clip-rule="evenodd" d="M17.8592 44.1872L23.658 42.666L24.2175 42.9981C26.5698 44.394 29.2663 45.1326 32.0156 45.1337H32.0218C40.4664 45.1337 47.3395 38.2605 47.3429 29.8124C47.3445 25.7185 45.7523 21.8692 42.8597 18.9731C39.967 16.0771 36.1201 14.4814 32.0278 14.48C23.5767 14.48 16.7035 21.3525 16.7002 29.8C16.699 32.695 17.509 35.5144 19.0427 37.9537L19.407 38.5334L17.8592 44.1872ZM40.6778 33.7826C40.999 33.9379 41.2159 34.0427 41.3085 34.1973C41.4237 34.3894 41.4237 35.3116 41.04 36.3876C40.6561 37.4635 38.816 38.4454 37.931 38.5776C37.1375 38.6963 36.1333 38.7458 35.03 38.3951C34.361 38.1829 33.5031 37.8995 32.4042 37.4249C28.0863 35.5604 25.1682 31.3754 24.6167 30.5844C24.5781 30.529 24.551 30.4902 24.536 30.4701L24.5323 30.4652C24.2885 30.1399 22.6553 27.9608 22.6553 25.7055C22.6553 23.5839 23.6974 22.4718 24.1771 21.9599C24.21 21.9249 24.2402 21.8926 24.2673 21.863C24.6895 21.4019 25.1885 21.2866 25.4955 21.2866C25.8026 21.2866 26.1099 21.2895 26.3783 21.303C26.4114 21.3046 26.4459 21.3044 26.4815 21.3042C26.7499 21.3026 27.0845 21.3007 27.4146 22.0936C27.5416 22.3988 27.7274 22.8511 27.9234 23.3283C28.3197 24.2932 28.7577 25.3593 28.8347 25.5136C28.9499 25.7441 29.0266 26.013 28.8731 26.3205C28.85 26.3666 28.8287 26.4102 28.8084 26.4517C28.6931 26.6871 28.6082 26.8603 28.4125 27.0888C28.3356 27.1787 28.256 27.2756 28.1765 27.3724C28.018 27.5654 27.8596 27.7584 27.7216 27.8958C27.491 28.1255 27.251 28.3747 27.5197 28.8358C27.7884 29.2969 28.7127 30.8051 30.082 32.0265C31.5539 33.3394 32.8331 33.8943 33.4816 34.1755C33.6082 34.2304 33.7108 34.2749 33.786 34.3126C34.2464 34.5432 34.5151 34.5046 34.7838 34.1973C35.0525 33.8899 35.9352 32.8524 36.2422 32.3913C36.5492 31.9304 36.8564 32.0072 37.2785 32.1608C37.7008 32.3147 39.9653 33.4288 40.4258 33.6593C40.5158 33.7043 40.5998 33.745 40.6778 33.7826Z" fill="white"/>
</svg>
