<svg width="62" height="62" viewBox="0 0 62 62" fill="none" xmlns="http://www.w3.org/2000/svg">
<path fill-rule="evenodd" clip-rule="evenodd" d="M31 0C13.8792 0 0 13.8792 0 31C0 48.1208 13.8792 62 31 62C48.1208 62 62 48.1208 62 31C62 13.8792 48.1208 0 31 0ZM43.919 20.3431C45.3418 20.7336 46.4623 21.8839 46.8426 23.3448C47.5336 25.9925 47.5336 31.5169 47.5336 31.5169C47.5336 31.5169 47.5336 37.0411 46.8426 39.689C46.4623 41.1499 45.3418 42.3003 43.919 42.6909C41.3405 43.4002 31.0003 43.4002 31.0003 43.4002C31.0003 43.4002 20.66 43.4002 18.0813 42.6909C16.6585 42.3003 15.538 41.1499 15.1577 39.689C14.4669 37.0411 14.4669 31.5169 14.4669 31.5169C14.4669 31.5169 14.4669 25.9925 15.1577 23.3448C15.538 21.8839 16.6585 20.7336 18.0813 20.3431C20.66 19.6336 31.0003 19.6336 31.0003 19.6336C31.0003 19.6336 41.3405 19.6336 43.919 20.3431Z" fill="white"/>
<path d="M27.8999 37.1995V26.8662L36.1666 32.0331L27.8999 37.1995Z" fill="white"/>
</svg>
